<svg width="1942" height="553" viewBox="0 0 1942 553" fill="none" xmlns="http://www.w3.org/2000/svg">
<rect y="196.555" width="1941.96" height="90.4151" rx="27.5176" fill="url(#paint0_linear_5_34)" fill-opacity="0.67"/>
<path d="M18.592 262V240.118H30.5408C35.5314 240.118 38.7465 239.206 40.1861 237.383C41.7217 235.559 42.4895 231.48 42.4895 225.146V111.705C42.4895 105.85 41.9617 101.819 40.9059 99.6121C39.8502 97.4047 36.3952 96.301 30.5408 96.301H19.0239V74.5629H178.533V126.245H154.635V119.767C154.635 112.856 153.915 107.962 152.476 105.083C151.132 102.203 149.261 100.476 146.861 99.9C144.558 99.2282 141.871 98.8923 138.799 98.8923H82.6546V155.901H113.318C116.198 155.901 118.549 155.805 120.372 155.613C122.292 155.325 123.779 154.365 124.835 152.734C125.891 151.102 126.563 148.175 126.851 143.952H137.36V188.724H126.851C126.371 183.157 125.123 179.798 123.108 178.647C121.188 177.399 118.021 176.775 113.606 176.775H82.6546V229.033C82.6546 234.024 83.8063 237.143 86.1097 238.39C88.413 239.542 92.5879 240.118 98.6343 240.118H107.128V262C99.642 262 92.348 262 85.2459 262C78.2398 261.904 69.7941 261.808 59.9088 261.712C50.7913 261.712 43.2573 261.76 37.3069 261.856C31.4525 261.952 25.2142 262 18.592 262ZM249.217 265.023C237.988 265.023 229.207 262.624 222.873 257.825C216.538 253.026 212.123 245.876 209.628 236.375C207.133 226.778 205.885 214.829 205.885 200.529V161.947C205.885 158.396 205.405 155.949 204.446 154.605C203.486 153.166 201.614 152.35 198.831 152.158C196.144 151.87 192.161 151.726 186.882 151.726V132.147C189.282 132.147 192.065 132.147 195.232 132.147C198.495 132.147 201.614 132.147 204.59 132.147C207.565 132.147 209.724 132.147 211.068 132.147C216.442 132.051 221.721 131.955 226.903 131.859C232.182 131.763 237.653 131.619 243.315 131.427V205.999C243.315 213.389 243.891 219.723 245.043 225.002C246.29 230.281 248.594 234.36 251.953 237.239C255.312 240.022 260.158 241.414 266.493 241.414C275.418 241.414 282.76 239.878 288.519 236.807C294.373 233.736 298.74 229.801 301.619 225.002C302.387 221.835 302.819 218.572 302.915 215.213C303.011 211.758 303.059 208.159 303.059 204.416V163.963C303.059 159.836 302.531 156.957 301.475 155.325C300.515 153.597 298.596 152.59 295.717 152.302C292.838 151.918 288.519 151.726 282.76 151.726V132.147C287.079 132.147 291.35 132.147 295.573 132.147C299.892 132.147 304.594 132.147 309.681 132.147C314.96 132.051 320.094 131.955 325.085 131.859C330.171 131.763 335.258 131.619 340.345 131.427V233.928C340.345 237.671 341.544 240.022 343.944 240.982C346.439 241.941 351.478 242.421 359.06 242.421V262C355.221 261.904 351.67 261.856 348.406 261.856C345.143 261.856 341.88 261.904 338.617 262C332.763 262 326.956 262.048 321.198 262.144C315.439 262.24 309.777 262.336 304.21 262.432C304.21 260.224 304.21 257.777 304.21 255.09C304.21 252.403 304.21 249.907 304.21 247.604C304.21 245.301 304.21 243.621 304.21 242.565C297.684 250.147 289.67 255.81 280.169 259.553C270.764 263.2 260.446 265.023 249.217 265.023ZM428.305 265.887C418.803 265.887 411.173 264.063 405.415 260.416C399.657 256.769 395.482 251.539 392.89 244.725C390.395 237.911 389.147 229.705 389.147 220.107V151.582H366.689V133.443C368.705 133.347 371.728 133.155 375.759 132.867C379.886 132.579 383.629 132.291 386.988 132.003C390.347 131.715 392.027 131.571 392.027 131.571C392.027 130.9 392.267 129.028 392.746 125.957C393.226 122.79 393.706 119.239 394.186 115.304C394.762 111.369 395.242 107.866 395.626 104.795C396.105 101.628 396.345 99.7561 396.345 99.1802L426.433 93.4218V131.859H461.416V151.582H426.577V214.493C426.577 223.323 427.201 230.089 428.449 234.791C429.792 239.494 433.391 241.845 439.246 241.845C442.413 241.845 444.86 240.742 446.588 238.534C448.411 236.231 449.323 232.632 449.323 227.737L464.295 226.01C464.295 239.35 461.032 249.331 454.506 255.954C447.979 262.576 439.246 265.887 428.305 265.887ZM541.17 265.023C529.941 265.023 521.16 262.624 514.825 257.825C508.491 253.026 504.076 245.876 501.581 236.375C499.086 226.778 497.838 214.829 497.838 200.529V161.947C497.838 158.396 497.358 155.949 496.398 154.605C495.439 153.166 493.567 152.35 490.784 152.158C488.097 151.87 484.114 151.726 478.835 151.726V132.147C481.234 132.147 484.018 132.147 487.185 132.147C490.448 132.147 493.567 132.147 496.542 132.147C499.517 132.147 501.677 132.147 503.02 132.147C508.395 132.051 513.674 131.955 518.856 131.859C524.135 131.763 529.605 131.619 535.268 131.427V205.999C535.268 213.389 535.844 219.723 536.995 225.002C538.243 230.281 540.546 234.36 543.905 237.239C547.264 240.022 552.111 241.414 558.445 241.414C567.371 241.414 574.713 239.878 580.471 236.807C586.326 233.736 590.693 229.801 593.572 225.002C594.34 221.835 594.772 218.572 594.868 215.213C594.963 211.758 595.011 208.159 595.011 204.416V163.963C595.011 159.836 594.484 156.957 593.428 155.325C592.468 153.597 590.549 152.59 587.669 152.302C584.79 151.918 580.471 151.726 574.713 151.726V132.147C579.032 132.147 583.303 132.147 587.526 132.147C591.844 132.147 596.547 132.147 601.634 132.147C606.912 132.051 612.047 131.955 617.037 131.859C622.124 131.763 627.211 131.619 632.297 131.427V233.928C632.297 237.671 633.497 240.022 635.896 240.982C638.392 241.941 643.43 242.421 651.012 242.421V262C647.173 261.904 643.622 261.856 640.359 261.856C637.096 261.856 633.833 261.904 630.57 262C624.715 262 618.909 262.048 613.151 262.144C607.392 262.24 601.73 262.336 596.163 262.432C596.163 260.224 596.163 257.777 596.163 255.09C596.163 252.403 596.163 249.907 596.163 247.604C596.163 245.301 596.163 243.621 596.163 242.565C589.637 250.147 581.623 255.81 572.122 259.553C562.716 263.2 552.399 265.023 541.17 265.023ZM664.545 262V242.133C671.551 242.133 676.445 241.893 679.229 241.414C682.012 240.934 683.643 239.878 684.123 238.246C684.603 236.615 684.843 234.024 684.843 230.473V159.212C684.843 155.277 683.403 153.022 680.524 152.446C677.741 151.87 672.558 151.582 664.976 151.582V131.859C666.896 131.859 669.631 131.907 673.182 132.003C676.733 132.003 679.996 132.051 682.972 132.147C685.947 132.147 687.434 132.147 687.434 132.147C692.713 132.147 698.087 132.051 703.558 131.859C709.029 131.667 714.643 131.523 720.401 131.427V158.492C724.816 148.991 731.103 141.697 739.26 136.61C747.514 131.427 757.399 128.836 768.916 128.836C773.139 128.836 777.602 129.22 782.305 129.988V169.433C780.289 169.241 777.938 169.193 775.251 169.289C772.563 169.289 770.26 169.337 768.34 169.433C766.997 165.306 765.077 162.187 762.582 160.076C760.087 157.964 756.584 156.909 752.073 156.909C744.107 156.909 737.485 160.22 732.206 166.842C726.928 173.464 723.952 182.246 723.281 193.187C723.089 193.667 722.945 195.202 722.849 197.793C722.753 200.289 722.657 203.312 722.561 206.863C722.561 210.414 722.513 214.061 722.417 217.804C722.417 221.451 722.417 224.666 722.417 227.449C722.417 230.233 722.417 232.152 722.417 233.208C722.417 237.815 724.048 240.454 727.312 241.126C730.671 241.797 736.621 242.133 745.163 242.133V262C737.965 262 730.959 261.952 724.144 261.856C717.33 261.76 709.22 261.712 699.815 261.712C692.137 261.712 685.707 261.76 680.524 261.856C675.438 261.952 670.111 262 664.545 262ZM866.666 266.175C850.158 266.175 836.29 263.248 825.061 257.393C813.832 251.539 805.386 243.429 799.724 233.064C794.061 222.603 791.23 210.702 791.23 197.362C791.23 183.253 794.253 171.017 800.3 160.652C806.346 150.286 814.888 142.273 825.925 136.61C836.962 130.852 849.774 127.972 864.362 127.972C878.854 127.972 891.475 130.756 902.224 136.322C912.973 141.889 921.323 150.094 927.273 160.939C933.32 171.784 936.343 185.077 936.343 200.817L928.281 202.4H829.092C829.188 216.604 832.931 227.593 840.321 235.367C847.711 243.141 857.596 247.028 869.977 247.028C878.806 247.028 886.34 245.109 892.579 241.27C898.817 237.431 903.328 231.72 906.111 224.138L933.751 225.866C929.913 239.014 922.091 249.044 910.286 255.954C898.577 262.768 884.037 266.175 866.666 266.175ZM829.38 185.701H901.216C900.832 173.896 897.521 164.442 891.283 157.34C885.141 150.238 876.503 146.687 865.37 146.687C854.813 146.687 846.415 150.19 840.177 157.196C834.035 164.107 830.436 173.608 829.38 185.701ZM957.793 262V240.118H965.423C970.509 240.118 974.013 239.59 975.932 238.534C977.851 237.383 978.955 235.751 979.243 233.64C979.627 231.432 979.819 228.793 979.819 225.722V108.538C979.819 103.931 978.907 100.764 977.084 99.0363C975.356 97.3087 971.661 96.445 965.999 96.445H958.657V74.5629C961.152 74.5629 964.799 74.6109 969.598 74.7069C974.396 74.7069 979.435 74.7548 984.714 74.8508C989.992 74.8508 994.503 74.8508 998.246 74.8508C1000.17 74.8508 1002.71 74.8508 1005.88 74.8508C1009.04 74.8508 1012.4 74.8508 1015.95 74.8508C1019.6 74.7548 1023.15 74.7069 1026.61 74.7069C1030.16 74.6109 1033.23 74.5629 1035.82 74.5629C1035.82 74.5629 1036.68 77.1062 1038.41 82.1928C1040.23 87.1835 1042.54 93.8537 1045.32 102.203C1048.2 110.457 1051.37 119.575 1054.82 129.556C1058.28 139.441 1061.68 149.375 1065.04 159.356C1068.4 169.241 1071.52 178.359 1074.4 186.708C1077.38 194.962 1079.73 201.632 1081.46 206.719C1083.18 211.71 1084.05 214.205 1084.05 214.205C1084.62 212.19 1085.82 208.447 1087.65 202.976C1089.47 197.41 1091.72 190.787 1094.41 183.109C1097.1 175.336 1100.03 167.034 1103.19 158.204C1106.36 149.375 1109.53 140.497 1112.69 131.571C1115.86 122.646 1118.79 114.296 1121.48 106.522C1124.26 98.7483 1126.61 92.0302 1128.53 86.3677C1130.55 80.7052 1131.84 76.7703 1132.42 74.5629C1135.01 74.5629 1138.22 74.6109 1142.06 74.7069C1145.9 74.7069 1149.93 74.7548 1154.16 74.8508C1158.38 74.8508 1162.31 74.8508 1165.96 74.8508C1169.61 74.8508 1172.49 74.8508 1174.6 74.8508C1177.77 74.8508 1181.7 74.8508 1186.4 74.8508C1191.2 74.7548 1195.81 74.7069 1200.22 74.7069C1204.64 74.6109 1207.81 74.5629 1209.72 74.5629V96.445H1201.81C1195.28 96.445 1191.39 97.3087 1190.15 99.0363C1188.99 100.668 1188.42 103.115 1188.42 106.378C1188.42 106.378 1188.42 108.634 1188.42 113.144C1188.42 117.559 1188.42 123.366 1188.42 130.564C1188.42 137.762 1188.42 145.632 1188.42 154.173C1188.42 162.715 1188.42 171.257 1188.42 179.798C1188.42 188.34 1188.42 196.21 1188.42 203.408C1188.42 210.51 1188.42 216.22 1188.42 220.539C1188.42 224.858 1188.42 227.017 1188.42 227.017C1188.42 232.584 1189.23 236.183 1190.87 237.815C1192.5 239.35 1196.38 240.118 1202.53 240.118H1210.16V262C1203.05 262 1196.1 261.952 1189.28 261.856C1182.56 261.76 1174.5 261.712 1165.1 261.712C1157.32 261.712 1150.99 261.76 1146.09 261.856C1141.3 261.952 1136.11 262 1130.55 262V240.118H1137.46C1144.37 240.118 1148.54 238.678 1149.98 235.799C1151.52 232.824 1152.28 228.745 1152.28 223.562V94.1416C1152.28 94.1416 1151.8 95.4852 1150.84 98.1725C1149.88 100.764 1148.73 103.835 1147.39 107.386C1146.05 110.937 1144.89 114.056 1143.93 116.743C1142.97 119.335 1142.49 120.63 1142.49 120.63L1091.1 262H1068.07C1066.34 257.585 1064.13 251.731 1061.44 244.437C1058.76 237.047 1055.78 228.841 1052.52 219.819C1049.35 210.702 1046.04 201.344 1042.59 191.747C1039.23 182.15 1035.92 172.84 1032.65 163.819C1029.49 154.701 1026.56 146.447 1023.87 139.057C1021.28 131.667 1019.12 125.765 1017.39 121.35C1017.01 120.294 1016.34 118.519 1015.38 116.024C1014.51 113.432 1013.51 110.649 1012.35 107.674C1011.3 104.699 1010.29 102.011 1009.33 99.6121C1008.47 97.1168 1007.84 95.4372 1007.46 94.5735V227.737C1007.46 233.304 1008.28 236.759 1009.91 238.102C1011.54 239.446 1015.33 240.118 1021.28 240.118H1028.77V262C1023.49 262 1018.35 261.952 1013.36 261.856C1008.37 261.76 1002.18 261.712 994.791 261.712C986.825 261.712 980.107 261.76 974.636 261.856C969.166 261.952 963.551 262 957.793 262ZM1227.43 262V242.133C1233.38 242.037 1237.7 241.749 1240.39 241.27C1243.08 240.79 1244.75 239.686 1245.43 237.959C1246.19 236.231 1246.58 233.64 1246.58 230.185V158.636C1246.58 155.085 1245.14 153.07 1242.26 152.59C1239.38 152.014 1234.68 151.678 1228.15 151.582C1228.15 148.223 1228.15 144.912 1228.15 141.649C1228.25 138.386 1228.3 135.122 1228.3 131.859C1232.23 131.859 1236.02 131.907 1239.67 132.003C1243.41 132.003 1247.06 132.003 1250.61 132.003C1255.98 131.907 1261.45 131.811 1267.02 131.715C1272.59 131.619 1278.2 131.475 1283.86 131.283V230.329C1283.86 235.703 1285.11 239.014 1287.61 240.262C1290.2 241.51 1295.09 242.133 1302.29 242.133V262C1299.32 262 1295.81 262 1291.78 262C1287.75 261.904 1283.62 261.856 1279.4 261.856C1275.27 261.856 1271.39 261.856 1267.74 261.856C1264.19 261.76 1261.36 261.712 1259.25 261.712C1252.82 261.712 1247.2 261.76 1242.4 261.856C1237.6 261.952 1232.61 262 1227.43 262ZM1264.43 104.219C1259.34 104.219 1255.12 102.587 1251.76 99.3242C1248.5 95.9651 1246.87 91.7902 1246.87 86.7996C1246.87 81.9049 1248.5 77.874 1251.76 74.7069C1255.12 71.4437 1259.34 69.8122 1264.43 69.8122C1269.52 69.8122 1273.69 71.4437 1276.95 74.7069C1280.22 77.97 1281.85 82.0489 1281.85 86.9435C1281.85 91.9342 1280.22 96.0611 1276.95 99.3242C1273.69 102.587 1269.52 104.219 1264.43 104.219ZM1317.41 262C1317.41 261.52 1317.41 260.32 1317.41 258.401C1317.41 256.481 1317.41 254.37 1317.41 252.067C1317.41 249.667 1317.41 247.556 1317.41 245.732C1317.41 243.813 1317.41 242.613 1317.41 242.133C1323.45 242.037 1327.92 241.797 1330.8 241.414C1333.77 241.03 1335.69 240.118 1336.55 238.678C1337.51 237.239 1337.99 234.935 1337.99 231.768V158.06C1337.99 154.797 1336.46 152.926 1333.39 152.446C1330.41 151.87 1325.37 151.582 1318.27 151.582C1318.27 150.91 1318.27 149.087 1318.27 146.111C1318.27 143.136 1318.22 140.209 1318.13 137.33C1318.13 134.355 1318.13 132.531 1318.13 131.859C1321.97 131.859 1325.61 131.907 1329.07 132.003C1332.62 132.003 1336.03 132.003 1339.29 132.003C1345.24 132.003 1351.05 131.955 1356.71 131.859C1362.37 131.667 1368.18 131.475 1374.13 131.283V152.446C1379.89 145.824 1387.13 140.353 1395.87 136.034C1404.6 131.619 1414.34 129.316 1425.09 129.124C1440.64 129.124 1452.44 133.155 1460.5 141.217C1468.66 149.279 1472.74 162.331 1472.74 180.374V234.36C1472.74 238.486 1474.23 240.79 1477.2 241.27C1480.18 241.654 1484.83 241.941 1491.17 242.133V262C1485.7 262 1480.32 262 1475.04 262C1469.77 261.904 1463.34 261.808 1455.75 261.712C1448.36 261.712 1441.5 261.76 1435.17 261.856C1428.83 261.952 1422.59 262 1416.45 262V242.133C1422.69 242.133 1427.11 241.893 1429.7 241.414C1432.29 240.934 1433.82 240.022 1434.3 238.678C1434.88 237.335 1435.17 235.319 1435.17 232.632V187.284C1435.17 175.959 1433.49 167.418 1430.13 161.659C1426.77 155.901 1420.24 153.022 1410.55 153.022C1402.01 153.022 1395 154.797 1389.53 158.348C1384.06 161.899 1379.89 165.642 1377.01 169.577C1376.34 172.744 1375.86 176.199 1375.57 179.942C1375.38 183.589 1375.28 187.476 1375.28 191.603V232.488C1375.28 237.287 1376.91 240.07 1380.17 240.838C1383.44 241.606 1388.76 242.037 1396.15 242.133V262C1389.82 262 1383.63 262 1377.58 262C1371.63 261.904 1364.39 261.808 1355.84 261.712C1348.07 261.712 1341.21 261.76 1335.26 261.856C1329.31 261.952 1323.36 262 1317.41 262ZM1572.51 265.167C1559.55 265.167 1548.27 262.336 1538.68 256.673C1529.08 251.011 1521.59 243.093 1516.22 232.92C1510.84 222.651 1508.16 210.75 1508.16 197.218C1508.16 183.109 1510.89 170.921 1516.36 160.652C1521.83 150.382 1529.51 142.464 1539.4 136.898C1549.38 131.236 1560.94 128.404 1574.09 128.404C1593.09 128.404 1608.16 135.026 1619.29 148.271V102.059C1619.29 98.5084 1618 96.301 1615.41 95.4372C1612.91 94.5735 1609.12 94.1416 1604.03 94.1416C1603.07 94.0456 1602.02 94.0456 1600.87 94.1416C1599.81 94.1416 1598.71 94.1416 1597.56 94.1416V74.4189C1601.78 74.5149 1605.95 74.5149 1610.08 74.4189C1614.21 74.323 1618.77 74.275 1623.76 74.275C1629.61 74.179 1635.27 74.083 1640.74 73.9871C1646.21 73.8911 1651.54 73.7951 1656.72 73.6991V234.503C1656.72 236.999 1657.63 238.918 1659.46 240.262C1661.28 241.606 1664.74 242.325 1669.82 242.421C1670.4 242.421 1671.41 242.421 1672.85 242.421C1674.38 242.421 1675.58 242.421 1676.45 242.421L1676.16 262C1672.7 262 1669.06 262 1665.22 262C1661.47 261.904 1657.83 261.904 1654.28 262C1648.61 262 1643 262.048 1637.43 262.144C1631.87 262.24 1626.35 262.336 1620.88 262.432C1620.88 261.76 1620.88 260.129 1620.88 257.537C1620.88 254.946 1620.88 252.211 1620.88 249.331C1620.88 246.356 1620.83 244.101 1620.73 242.565C1615.93 249.571 1609.41 255.09 1601.15 259.121C1593 263.152 1583.45 265.167 1572.51 265.167ZM1583.16 243.141C1595.25 243.141 1604.51 239.014 1610.94 230.76C1617.37 222.411 1620.59 211.134 1620.59 196.93C1620.59 182.63 1617.18 171.161 1610.37 162.523C1603.65 153.885 1594.58 149.567 1583.16 149.567C1571.74 149.567 1562.72 153.837 1556.09 162.379C1549.57 170.825 1546.31 182.294 1546.31 196.786C1546.31 211.182 1549.57 222.507 1556.09 230.76C1562.62 239.014 1571.64 243.141 1583.16 243.141Z" fill="black"/>
<rect y="440.282" width="1941.96" height="82.5529" rx="27.5176" fill="url(#paint1_linear_5_34)" fill-opacity="0.55"/>
<path d="M112.455 497.533C94.3154 497.533 79.7274 494.846 68.6904 489.472C57.6534 484.001 49.6876 475.747 44.7929 464.71C39.8982 453.673 37.4509 439.805 37.4509 423.106V338.457C37.4509 335.961 36.7791 333.658 35.4354 331.547C34.0918 329.435 30.1089 328.379 23.4867 328.379H16.8645V306.497C19.7437 306.497 23.4867 306.545 28.0934 306.641C32.7961 306.737 37.6908 306.833 42.7774 306.929C47.8641 306.929 52.3748 306.929 56.3098 306.929C62.932 306.929 69.5062 306.881 76.0324 306.785C82.5586 306.689 89.8527 306.593 97.9145 306.497V328.379H92.444C87.5493 328.379 83.9982 329.051 81.7908 330.395C79.6794 331.643 78.3838 333.322 77.9039 335.433C77.424 337.449 77.1841 339.656 77.1841 342.056V422.53C77.1841 433.759 78.3838 443.164 80.7831 450.746C83.1825 458.232 87.3573 463.895 93.3077 467.734C99.2581 471.477 107.56 473.348 118.213 473.348C128.578 473.348 136.496 471.477 141.967 467.734C147.533 463.991 151.324 458.472 153.339 451.178C155.451 443.788 156.507 434.767 156.507 424.113V341.624C156.507 339.224 156.267 337.017 155.787 335.002C155.307 332.986 153.963 331.403 151.756 330.251C149.548 329.003 145.805 328.379 140.527 328.379H134.768V306.497C136.688 306.593 139.663 306.689 143.694 306.785C147.725 306.785 151.996 306.785 156.507 306.785C161.113 306.785 165.048 306.785 168.311 306.785C170.999 306.785 174.118 306.785 177.669 306.785C181.316 306.689 185.491 306.641 190.193 306.641C194.896 306.545 200.223 306.497 206.173 306.497V328.379H199.119C194.416 328.379 191.105 329.147 189.186 330.683C187.362 332.122 186.306 333.946 186.019 336.153C185.731 338.265 185.587 340.232 185.587 342.056V422.242C185.587 447.195 180.02 466.006 168.887 478.675C157.754 491.247 138.943 497.533 112.455 497.533ZM219.849 493.934C219.849 493.455 219.849 492.255 219.849 490.335C219.849 488.416 219.849 486.305 219.849 484.001C219.849 481.602 219.849 479.49 219.849 477.667C219.849 475.747 219.849 474.548 219.849 474.068C225.896 473.972 230.359 473.732 233.238 473.348C236.213 472.964 238.132 472.052 238.996 470.613C239.956 469.173 240.436 466.87 240.436 463.703V389.995C240.436 386.732 238.9 384.86 235.829 384.38C232.854 383.804 227.815 383.516 220.713 383.516C220.713 382.845 220.713 381.021 220.713 378.046C220.713 375.071 220.665 372.144 220.569 369.264C220.569 366.289 220.569 364.466 220.569 363.794C224.408 363.794 228.055 363.842 231.51 363.938C235.061 363.938 238.468 363.938 241.731 363.938C247.682 363.938 253.488 363.89 259.151 363.794C264.813 363.602 270.62 363.41 276.57 363.218V384.38C282.328 377.758 289.574 372.287 298.308 367.969C307.042 363.554 316.783 361.25 327.532 361.059C343.08 361.059 354.885 365.089 362.946 373.151C371.104 381.213 375.183 394.266 375.183 412.309V466.294C375.183 470.421 376.671 472.724 379.646 473.204C382.621 473.588 387.276 473.876 393.61 474.068V493.934C388.14 493.934 382.765 493.934 377.487 493.934C372.208 493.838 365.778 493.743 358.196 493.647C350.806 493.647 343.944 493.695 337.609 493.79C331.275 493.886 325.037 493.934 318.894 493.934V474.068C325.133 474.068 329.548 473.828 332.139 473.348C334.73 472.868 336.266 471.956 336.746 470.613C337.321 469.269 337.609 467.254 337.609 464.566V419.219C337.609 407.894 335.93 399.352 332.571 393.594C329.212 387.835 322.685 384.956 312.992 384.956C304.45 384.956 297.444 386.732 291.974 390.283C286.503 393.834 282.328 397.577 279.449 401.512C278.777 404.679 278.297 408.134 278.01 411.877C277.818 415.524 277.722 419.411 277.722 423.538V464.422C277.722 469.221 279.353 472.004 282.616 472.772C285.879 473.54 291.206 473.972 298.596 474.068V493.934C292.262 493.934 286.071 493.934 280.025 493.934C274.075 493.838 266.829 493.743 258.287 493.647C250.513 493.647 243.651 493.695 237.701 493.79C231.75 493.886 225.8 493.934 219.849 493.934ZM407.142 493.934V474.068C413.093 473.972 417.412 473.684 420.099 473.204C422.786 472.724 424.466 471.621 425.138 469.893C425.905 468.165 426.289 465.574 426.289 462.119V390.571C426.289 387.019 424.85 385.004 421.97 384.524C419.091 383.948 414.389 383.612 407.862 383.516C407.862 380.157 407.862 376.846 407.862 373.583C407.958 370.32 408.006 367.057 408.006 363.794C411.941 363.794 415.732 363.842 419.379 363.938C423.122 363.938 426.769 363.938 430.32 363.938C435.695 363.842 441.165 363.746 446.732 363.65C452.298 363.554 457.913 363.41 463.575 363.218V462.263C463.575 467.638 464.823 470.949 467.318 472.196C469.909 473.444 474.804 474.068 482.002 474.068V493.934C479.027 493.934 475.524 493.934 471.493 493.934C467.462 493.838 463.335 493.79 459.112 493.79C454.986 493.79 451.099 493.79 447.452 493.79C443.901 493.695 441.069 493.647 438.958 493.647C432.528 493.647 426.913 493.695 422.114 493.79C417.316 493.886 412.325 493.934 407.142 493.934ZM444.14 336.153C439.054 336.153 434.831 334.522 431.472 331.259C428.209 327.9 426.577 323.725 426.577 318.734C426.577 313.839 428.209 309.808 431.472 306.641C434.831 303.378 439.054 301.747 444.14 301.747C449.227 301.747 453.402 303.378 456.665 306.641C459.928 309.904 461.56 313.983 461.56 318.878C461.56 323.869 459.928 327.996 456.665 331.259C453.402 334.522 449.227 336.153 444.14 336.153ZM549.52 495.806L504.316 397.049C502.781 393.402 501.389 390.762 500.141 389.131C498.894 387.499 497.454 386.444 495.822 385.964C494.767 385.388 493.423 385.1 491.792 385.1C490.16 385.1 488.24 385.196 486.033 385.388V363.794C492.175 363.794 498.03 363.842 503.596 363.938C509.259 364.034 514.393 364.082 519 364.082C524.663 364.082 530.757 364.082 537.283 364.082C543.809 363.986 551.151 363.89 559.309 363.794V383.804C554.223 383.804 550.096 384.14 546.929 384.812C543.857 385.388 542.034 386.78 541.458 388.987C541.746 390.331 542.178 391.866 542.754 393.594C543.33 395.225 544.145 397.145 545.201 399.352C546.545 402.807 548.368 407.318 550.672 412.884C552.975 418.451 555.422 424.353 558.014 430.592C560.701 436.734 563.244 442.54 565.643 448.011C568.043 453.481 569.962 457.992 571.402 461.543C572.937 464.998 573.705 466.726 573.705 466.726C574.281 465.478 575.241 463.223 576.584 459.96C578.024 456.601 579.704 452.714 581.623 448.299C583.543 443.788 585.51 439.085 587.526 434.191C589.637 429.296 591.604 424.593 593.428 420.083C595.347 415.572 597.027 411.685 598.467 408.422C599.906 405.063 600.866 402.759 601.346 401.512C603.457 396.713 604.801 392.634 605.377 389.275C604.897 387.067 603.409 385.628 600.914 384.956C598.419 384.188 593.62 383.804 586.518 383.804V363.794C593.524 363.89 599.618 363.986 604.801 364.082C610.079 364.178 615.55 364.226 621.212 364.226C625.627 364.226 630.234 364.178 635.033 364.082C639.831 363.986 644.726 363.89 649.717 363.794V383.804C645.59 383.804 642.423 384.092 640.215 384.668C638.008 385.244 636.232 386.348 634.889 387.979C633.545 389.611 632.297 391.818 631.146 394.601C629.994 397.385 628.314 401.176 626.107 405.974L586.086 495.806H549.52ZM733.646 498.109C717.138 498.109 703.27 495.182 692.041 489.328C680.812 483.473 672.366 475.363 666.704 464.998C661.042 454.537 658.21 442.636 658.21 429.296C658.21 415.188 661.233 402.951 667.28 392.586C673.326 382.221 681.868 374.207 692.905 368.544C703.942 362.786 716.754 359.907 731.342 359.907C745.834 359.907 758.455 362.69 769.204 368.257C779.953 373.823 788.303 382.029 794.253 392.874C800.3 403.719 803.323 417.011 803.323 432.751L795.261 434.335H696.072C696.168 448.539 699.911 459.528 707.301 467.302C714.691 475.076 724.576 478.963 736.957 478.963C745.787 478.963 753.32 477.043 759.559 473.204C765.797 469.365 770.308 463.655 773.091 456.073L800.732 457.8C796.893 470.949 789.071 480.978 777.266 487.888C765.557 494.702 751.017 498.109 733.646 498.109ZM696.36 417.635H768.196C767.813 405.83 764.501 396.377 758.263 389.275C752.121 382.173 743.483 378.622 732.35 378.622C721.793 378.622 713.395 382.125 707.157 389.131C701.015 396.041 697.416 405.542 696.36 417.635ZM822.614 493.934V474.068C829.62 474.068 834.514 473.828 837.298 473.348C840.081 472.868 841.713 471.812 842.192 470.181C842.672 468.549 842.912 465.958 842.912 462.407V391.146C842.912 387.211 841.473 384.956 838.593 384.38C835.81 383.804 830.628 383.516 823.046 383.516V363.794C824.965 363.794 827.7 363.842 831.251 363.938C834.802 363.938 838.065 363.986 841.041 364.082C844.016 364.082 845.503 364.082 845.503 364.082C850.782 364.082 856.157 363.986 861.627 363.794C867.098 363.602 872.712 363.458 878.471 363.362V390.427C882.885 380.925 889.172 373.631 897.329 368.544C905.583 363.362 915.468 360.771 926.985 360.771C931.208 360.771 935.671 361.155 940.374 361.922V401.368C938.358 401.176 936.007 401.128 933.32 401.224C930.632 401.224 928.329 401.272 926.41 401.368C925.066 397.241 923.146 394.122 920.651 392.01C918.156 389.899 914.653 388.843 910.142 388.843C902.176 388.843 895.554 392.154 890.275 398.776C884.997 405.398 882.022 414.18 881.35 425.121C881.158 425.601 881.014 427.137 880.918 429.728C880.822 432.223 880.726 435.246 880.63 438.797C880.63 442.348 880.582 445.995 880.486 449.738C880.486 453.385 880.486 456.601 880.486 459.384C880.486 462.167 880.486 464.087 880.486 465.142C880.486 469.749 882.118 472.388 885.381 473.06C888.74 473.732 894.69 474.068 903.232 474.068V493.934C896.034 493.934 889.028 493.886 882.214 493.79C875.399 493.695 867.29 493.647 857.884 493.647C850.206 493.647 843.776 493.695 838.593 493.79C833.507 493.886 828.18 493.934 822.614 493.934ZM1014.95 497.102C1005.16 497.102 996.95 495.854 990.328 493.359C983.706 490.863 978.283 487.168 974.061 482.274L973.197 493.503C969.55 493.503 965.903 493.407 962.256 493.215C958.705 492.927 955.106 492.783 951.459 492.783V451.754H973.485C974.061 461.159 977.66 468.261 984.282 473.06C990.904 477.763 999.11 480.114 1008.9 480.114C1016.67 480.114 1023.01 478.627 1027.9 475.651C1032.8 472.676 1035.24 468.597 1035.24 463.415C1035.24 459.192 1033.28 455.737 1029.34 453.05C1025.41 450.362 1020.27 447.963 1013.94 445.852C1007.6 443.74 1000.79 441.485 993.495 439.085C984.762 436.11 977.276 432.991 971.037 429.728C964.895 426.369 960.192 422.29 956.929 417.491C953.666 412.693 952.035 406.598 952.035 399.208C952.035 387.883 956.353 378.718 964.991 371.712C973.725 364.61 985.865 361.059 1001.41 361.059C1009.67 361.059 1017.39 362.114 1024.59 364.226C1031.79 366.337 1037.5 369.6 1041.72 374.015C1041.91 373.439 1042.2 372.287 1042.59 370.56C1042.97 368.832 1043.35 367.201 1043.74 365.665C1044.12 364.13 1044.31 363.362 1044.31 363.362C1044.31 363.362 1045.47 363.458 1047.77 363.65C1050.17 363.746 1052.81 363.938 1055.69 364.226C1058.57 364.418 1060.77 364.61 1062.31 364.802V403.527H1042.59C1041.43 395.657 1037.93 389.467 1032.08 384.956C1026.32 380.445 1018.4 378.094 1008.32 377.902C1000.07 377.902 994.023 379.582 990.184 382.941C986.345 386.204 984.426 389.947 984.426 394.17C984.426 399.256 987.305 403.191 993.063 405.974C998.822 408.662 1006.6 411.397 1016.39 414.18C1027.33 417.155 1036.64 420.37 1044.31 423.825C1052.09 427.281 1057.99 431.599 1062.02 436.782C1066.15 441.965 1068.21 448.779 1068.21 457.224C1068.21 466.342 1065.76 473.876 1060.87 479.826C1055.97 485.681 1049.5 490.048 1041.43 492.927C1033.37 495.71 1024.54 497.102 1014.95 497.102ZM1089.23 493.934V474.068C1095.18 473.972 1099.5 473.684 1102.19 473.204C1104.87 472.724 1106.55 471.621 1107.22 469.893C1107.99 468.165 1108.38 465.574 1108.38 462.119V390.571C1108.38 387.019 1106.94 385.004 1104.06 384.524C1101.18 383.948 1096.48 383.612 1089.95 383.516C1089.95 380.157 1089.95 376.846 1089.95 373.583C1090.05 370.32 1090.09 367.057 1090.09 363.794C1094.03 363.794 1097.82 363.842 1101.47 363.938C1105.21 363.938 1108.86 363.938 1112.41 363.938C1117.78 363.842 1123.25 363.746 1128.82 363.65C1134.39 363.554 1140 363.41 1145.66 363.218V462.263C1145.66 467.638 1146.91 470.949 1149.4 472.196C1152 473.444 1156.89 474.068 1164.09 474.068V493.934C1161.11 493.934 1157.61 493.934 1153.58 493.934C1149.55 493.838 1145.42 493.79 1141.2 493.79C1137.07 493.79 1133.19 493.79 1129.54 493.79C1125.99 493.695 1123.16 493.647 1121.04 493.647C1114.61 493.647 1109 493.695 1104.2 493.79C1099.4 493.886 1094.41 493.934 1089.23 493.934ZM1126.23 336.153C1121.14 336.153 1116.92 334.522 1113.56 331.259C1110.3 327.9 1108.66 323.725 1108.66 318.734C1108.66 313.839 1110.3 309.808 1113.56 306.641C1116.92 303.378 1121.14 301.747 1126.23 301.747C1131.31 301.747 1135.49 303.378 1138.75 306.641C1142.01 309.904 1143.65 313.983 1143.65 318.878C1143.65 323.869 1142.01 327.996 1138.75 331.259C1135.49 334.522 1131.31 336.153 1126.23 336.153ZM1233.91 497.821C1224.41 497.821 1216.78 495.998 1211.02 492.351C1205.26 488.704 1201.09 483.473 1198.5 476.659C1196 469.845 1194.75 461.639 1194.75 452.042V383.516H1172.29V365.377C1174.31 365.281 1177.33 365.089 1181.36 364.802C1185.49 364.514 1189.23 364.226 1192.59 363.938C1195.95 363.65 1197.63 363.506 1197.63 363.506C1197.63 362.834 1197.87 360.963 1198.35 357.891C1198.83 354.724 1199.31 351.173 1199.79 347.238C1200.37 343.303 1200.85 339.8 1201.23 336.729C1201.71 333.562 1201.95 331.691 1201.95 331.115L1232.04 325.356V363.794H1267.02V383.516H1232.18V446.427C1232.18 455.257 1232.81 462.023 1234.05 466.726C1235.4 471.429 1239 473.78 1244.85 473.78C1248.02 473.78 1250.47 472.676 1252.19 470.469C1254.02 468.165 1254.93 464.566 1254.93 459.672L1269.9 457.944C1269.9 471.285 1266.64 481.266 1260.11 487.888C1253.58 494.51 1244.85 497.821 1233.91 497.821ZM1322.3 552.958C1319.71 552.958 1316.78 552.766 1313.52 552.383C1310.35 551.999 1308 551.807 1306.47 551.807L1306.75 528.629C1308.58 528.629 1310.74 528.725 1313.23 528.917C1315.73 529.205 1317.89 529.301 1319.71 529.205C1325.09 529.109 1329.45 527.765 1332.81 525.174C1336.17 522.679 1339.48 517.976 1342.74 511.066L1346.49 502.14C1346.49 502.14 1345.34 499.693 1343.03 494.798C1340.82 490 1337.9 483.761 1334.25 476.083C1330.7 468.309 1326.86 460.056 1322.73 451.322C1318.61 442.588 1314.67 434.287 1310.93 426.417C1307.19 418.451 1304.07 411.829 1301.57 406.55C1299.17 401.176 1297.78 398.152 1297.4 397.481C1295.09 392.682 1293.13 389.467 1291.49 387.835C1289.86 386.108 1286.5 385.244 1281.42 385.244H1276.95C1276.95 384.764 1276.95 383.516 1276.95 381.501C1276.95 379.39 1276.95 377.086 1276.95 374.591C1276.86 372 1276.81 369.696 1276.81 367.681C1276.81 365.665 1276.81 364.37 1276.81 363.794C1283.34 363.794 1289.53 363.842 1295.38 363.938C1301.33 364.034 1306.66 364.082 1311.36 364.082C1317.02 364.082 1323.12 364.082 1329.64 364.082C1336.27 363.986 1343.7 363.89 1351.96 363.794V383.804H1343.9C1340.63 383.804 1338.09 384.332 1336.27 385.388C1334.54 386.348 1333.67 387.979 1333.67 390.283C1333.67 392.49 1334.73 395.897 1336.84 400.504C1338.95 405.015 1340.78 408.95 1342.31 412.309L1365.2 462.551L1391.12 399.496C1392.75 395.561 1393.71 392.346 1393.99 389.851C1393.61 387.451 1392.22 385.868 1389.82 385.1C1387.52 384.236 1383.1 383.804 1376.58 383.804V363.794C1382.53 363.89 1387.9 363.986 1392.7 364.082C1397.5 364.082 1402.34 364.082 1407.24 364.082C1413.48 364.082 1419.43 364.082 1425.09 364.082C1430.85 363.986 1436.99 363.89 1443.52 363.794C1443.52 364.37 1443.52 365.617 1443.52 367.537C1443.52 369.456 1443.52 371.616 1443.52 374.015C1443.52 376.318 1443.52 378.43 1443.52 380.349C1443.61 382.173 1443.66 383.324 1443.66 383.804C1438.29 383.804 1434.3 384.236 1431.71 385.1C1429.12 385.868 1427.11 387.307 1425.67 389.419C1424.32 391.53 1422.69 394.793 1420.77 399.208L1370.24 512.074C1365.54 522.343 1360.88 530.453 1356.28 536.403C1351.77 542.353 1346.82 546.576 1341.45 549.071C1336.07 551.663 1329.69 552.958 1322.3 552.958Z" fill="black"/>
<defs>
<linearGradient id="paint0_linear_5_34" x1="0" y1="241.762" x2="1941.96" y2="241.762" gradientUnits="userSpaceOnUse">
<stop stop-color="#2660A2"/>
<stop offset="0.336538" stop-color="#2660A2" stop-opacity="0.495192"/>
<stop offset="1" stop-color="white" stop-opacity="0"/>
</linearGradient>
<linearGradient id="paint1_linear_5_34" x1="-3.83965e-06" y1="484.733" x2="1941.96" y2="484.733" gradientUnits="userSpaceOnUse">
<stop stop-color="#2660A2"/>
<stop offset="1" stop-color="white" stop-opacity="0"/>
</linearGradient>
</defs>
</svg>
